<svg width="16" height="9" viewBox="0 0 16 9" fill="none" xmlns="http://www.w3.org/2000/svg">
<path d="M0.574143 8.45497C0.950138 8.80552 1.44508 9.00046 1.95914 9.00046C2.47321 9.00046 2.96815 8.80552 3.34414 8.45497L7.50114 4.49997L11.6571 8.45397C12.0329 8.80496 12.5279 9.00019 13.0421 9.00019C13.5563 9.00019 14.0514 8.80496 14.4271 8.45397C14.6083 8.28551 14.7527 8.08153 14.8515 7.85477C14.9502 7.628 15.0012 7.38331 15.0012 7.13597C15.0012 6.88862 14.9502 6.64393 14.8515 6.41717C14.7527 6.1904 14.6083 5.98642 14.4271 5.81797L8.88614 0.545966C8.51009 0.195123 8.01494 8.67865e-06 7.50064 8.67251e-06C6.98634 8.66638e-06 6.49119 0.195123 6.11514 0.545966L0.574143 5.81897C0.393032 5.98742 0.248583 6.1914 0.149811 6.41817C0.051038 6.64493 6.10603e-05 6.88962 6.10574e-05 7.13697C6.10544e-05 7.38431 0.0510379 7.629 0.149811 7.85577C0.248583 8.08253 0.393032 8.28651 0.574143 8.45497Z" fill="#5D82D5"/>
</svg>
