<svg width="150" height="28" viewBox="0 0 150 28" fill="none" xmlns="http://www.w3.org/2000/svg">
<g clip-path="url(#clip0_0_604)">
<path d="M9.99907 13H2.99637C2.20712 13.0035 1.44867 12.6898 0.887078 12.1275C0.325487 11.5652 0.00651539 10.8002 0 10L0 3.00004C0.00651586 2.19932 0.325895 1.43389 0.888126 0.871534C1.45036 0.309177 2.20957 -0.00421968 2.99933 4.29199e-05H10.002C10.7918 -0.00421968 11.551 0.309177 12.1132 0.871534C12.6755 1.43389 12.9948 2.19932 13.0014 3.00004V10C12.9948 10.8008 12.6755 11.5662 12.1132 12.1286C11.551 12.6909 10.7918 13.0043 10.002 13H9.99907ZM2.99933 2.00004C2.73624 1.99897 2.48344 2.10358 2.29621 2.29097C2.10898 2.47837 2.00255 2.73331 2.00021 3.00004V10C2.00255 10.267 2.10911 10.522 2.29656 10.7095C2.484 10.8969 2.73706 11.0014 3.00031 11H10.003C10.2663 11.0014 10.5193 10.8969 10.7068 10.7095C10.8942 10.522 11.0008 10.267 11.0031 10V3.00004C11.0008 2.73313 10.8942 2.47804 10.7068 2.29062C10.5193 2.10319 10.2663 1.99871 10.003 2.00004H2.99933Z" fill="#5D82D5"/>
<path d="M4.99922 4.00002H7.99855C8.12898 3.9991 8.25831 4.02424 8.37916 4.07399C8.50001 4.12375 8.61001 4.19715 8.70287 4.29001C8.79574 4.38287 8.86966 4.49337 8.92041 4.61519C8.97116 4.73702 8.99775 4.86778 8.99865 5.00002V8.00002C8.99775 8.13227 8.97116 8.26303 8.92041 8.38486C8.86966 8.50668 8.79574 8.61718 8.70287 8.71004C8.61001 8.8029 8.50001 8.8763 8.37916 8.92606C8.25831 8.97581 8.12898 9.00095 7.99855 9.00002H4.99922C4.86879 9.00095 4.73946 8.97581 4.61861 8.92606C4.49776 8.8763 4.38776 8.8029 4.29489 8.71004C4.20202 8.61718 4.1281 8.50668 4.07735 8.38486C4.0266 8.26303 4.00002 8.13227 3.99911 8.00002V5.00002C4.00002 4.86778 4.0266 4.73702 4.07735 4.61519C4.1281 4.49337 4.20202 4.38287 4.29489 4.29001C4.38776 4.19715 4.49776 4.12375 4.61861 4.07399C4.73946 4.02424 4.86879 3.9991 4.99922 4.00002Z" fill="#5D82D5"/>
<path d="M19.9979 19H22.9972C23.1276 18.9991 23.257 19.0242 23.3778 19.074C23.4987 19.1237 23.6087 19.1972 23.7015 19.29C23.7944 19.3829 23.8683 19.4934 23.9191 19.6152C23.9698 19.737 23.9964 19.8678 23.9973 20V23C23.9964 23.1323 23.9698 23.263 23.9191 23.3849C23.8683 23.5067 23.7944 23.6172 23.7015 23.71C23.6087 23.8029 23.4987 23.8763 23.3778 23.9261C23.257 23.9758 23.1276 24.0009 22.9972 24H19.9979C19.8674 24.0009 19.7381 23.9758 19.6173 23.9261C19.4964 23.8763 19.3864 23.8029 19.2935 23.71C19.2007 23.6172 19.1268 23.5067 19.076 23.3849C19.0253 23.263 18.9987 23.1323 18.9978 23V20C18.9987 19.8678 19.0253 19.737 19.076 19.6152C19.1268 19.4934 19.2007 19.3829 19.2935 19.29C19.3864 19.1972 19.4964 19.1237 19.6173 19.074C19.7381 19.0242 19.8674 18.9991 19.9979 19Z" fill="#5D82D5"/>
<path d="M9.99907 28H2.99637C2.20712 28.0035 1.44867 27.6898 0.887078 27.1275C0.325487 26.5652 0.00651539 25.8002 0 25L0 18C0.00651586 17.1993 0.325895 16.4339 0.888126 15.8715C1.45036 15.3092 2.20957 14.9958 2.99933 15H10.002C10.7918 14.9958 11.551 15.3092 12.1132 15.8715C12.6755 16.4339 12.9948 17.1993 13.0014 18V25C12.9948 25.8008 12.6755 26.5662 12.1132 27.1286C11.551 27.6909 10.7918 28.0043 10.002 28H9.99907ZM2.99933 17C2.73599 16.9984 2.48279 17.1028 2.29529 17.2903C2.10779 17.4778 2.00131 17.7331 1.99922 18V25C2.00131 25.267 2.10779 25.5223 2.29529 25.7098C2.48279 25.8972 2.73599 26.0016 2.99933 26H10.002C10.2654 26.0016 10.5186 25.8972 10.7061 25.7098C10.8936 25.5223 11.0001 25.267 11.0021 25V18C11.0001 17.7331 10.8936 17.4778 10.7061 17.2903C10.5186 17.1028 10.2654 16.9984 10.002 17H2.99933Z" fill="#5D82D5"/>
<path d="M24.9977 13H17.995C17.2057 13.0035 16.4473 12.6898 15.8857 12.1275C15.3241 11.5652 15.0051 10.8002 14.9986 10V3.00004C15.0051 2.19932 15.3245 1.43389 15.8868 0.871534C16.449 0.309177 17.2082 -0.00421968 17.998 4.29199e-05H25.0007C25.7904 -0.00421968 26.5496 0.309177 27.1119 0.871534C27.6741 1.43389 27.9935 2.19932 28 3.00004V10C27.9935 10.8008 27.6741 11.5662 27.1119 12.1286C26.5496 12.6909 25.7904 13.0043 25.0007 13H24.9977ZM17.998 2.00004C17.7347 1.99871 17.4816 2.10319 17.2942 2.29062C17.1068 2.47804 17.0002 2.73313 16.9979 3.00004V10C17.0002 10.267 17.1068 10.522 17.2942 10.7095C17.4816 10.8969 17.7347 11.0014 17.998 11H25.0007C25.2639 11.0014 25.517 10.8969 25.7044 10.7095C25.8919 10.522 25.9984 10.267 26.0008 10V3.00004C25.9984 2.73313 25.8919 2.47804 25.7044 2.29062C25.517 2.10319 25.2639 1.99871 25.0007 2.00004H17.998Z" fill="#5D82D5"/>
<path d="M24.9977 28H17.995C17.2057 28.0035 16.4473 27.6898 15.8857 27.1275C15.3241 26.5652 15.0051 25.8002 14.9986 25V18C15.0051 17.1993 15.3245 16.4339 15.8868 15.8715C16.449 15.3092 17.2082 14.9958 17.998 15H25.0007C25.7904 14.9958 26.5496 15.3092 27.1119 15.8715C27.6741 16.4339 27.9935 17.1993 28 18V25C27.9935 25.8008 27.6741 26.5662 27.1119 27.1286C26.5496 27.6909 25.7904 28.0043 25.0007 28H24.9977ZM17.998 17C17.7346 16.9984 17.4814 17.1028 17.2939 17.2903C17.1064 17.4778 16.9999 17.7331 16.9979 18V25C16.9999 25.267 17.1064 25.5223 17.2939 25.7098C17.4814 25.8972 17.7346 26.0016 17.998 26H25.0007C25.264 26.0016 25.5172 25.8972 25.7047 25.7098C25.8922 25.5223 25.9987 25.267 26.0008 25V18C25.9987 17.7331 25.8922 17.4778 25.7047 17.2903C25.5172 17.1028 25.264 16.9984 25.0007 17H17.998Z" fill="#5D82D5"/>
<path d="M74.4499 21.3713C74.3364 21.2749 74.2359 21.1641 74.1512 21.0415L73.3187 19.9021C72.5172 20.2531 71.6488 20.4237 70.7746 20.4018C69.2959 20.4967 67.8392 20.005 66.718 19.0326C66.2051 18.4801 65.807 17.8305 65.5469 17.1218C65.2869 16.4131 65.1701 15.6595 65.2035 14.905C65.1896 14.5052 65.1826 13.9389 65.1826 13.2059C65.1826 12.4724 65.1896 11.9137 65.2035 11.5269C65.1746 10.7701 65.2983 10.0152 65.5673 9.30765C65.8363 8.60006 66.245 7.95433 66.7688 7.40923C67.9071 6.50267 69.3175 6.00928 70.7707 6.00928C72.2238 6.00928 73.6342 6.50267 74.7725 7.40923C75.2932 7.95603 75.6992 8.60231 75.9662 9.30966C76.2332 10.017 76.3558 10.771 76.3268 11.5269C76.3541 12.2998 76.3677 12.8595 76.3677 13.2059C76.3677 13.5391 76.3541 14.1054 76.3268 14.905C76.3625 15.6518 76.2506 16.3983 75.9977 17.1015C75.7448 17.8048 75.3558 18.4509 74.8532 19.0026L76.2064 20.8806C76.2437 20.9484 76.2649 21.024 76.2681 21.1015C76.2681 21.1538 76.2574 21.2057 76.2365 21.2537C76.2156 21.3017 76.185 21.3448 76.1466 21.3803C76.1099 21.4185 76.0657 21.4488 76.017 21.4695C75.9682 21.4901 75.9158 21.5005 75.8628 21.5002H74.8332C74.6944 21.5033 74.5589 21.4577 74.4499 21.3713ZM73.3596 17.7733C74.0708 16.9538 74.4399 15.8907 74.3901 14.805C74.4167 14.0055 74.4303 13.4725 74.431 13.2059C74.431 12.9128 74.4174 12.3797 74.3901 11.6068C74.4387 10.5183 74.0699 9.45251 73.3596 8.62854C73.0178 8.29609 72.6117 8.03763 72.1664 7.86915C71.7211 7.70067 71.246 7.62577 70.7707 7.64909C70.2947 7.62727 69.8193 7.70285 69.3734 7.87123C68.9275 8.0396 68.5204 8.29726 68.1768 8.62854C67.4639 9.45105 67.0944 10.5178 67.1452 11.6068C67.1313 11.9933 67.1243 12.5263 67.1243 13.2059C67.1243 13.8722 67.1313 14.4053 67.1452 14.805C67.0946 15.89 67.4618 16.9528 68.1708 17.7733C68.8915 18.3987 69.8125 18.7429 70.7652 18.7429C71.7179 18.7429 72.6388 18.3987 73.3596 17.7733Z" fill="#1E1D20"/>
<path d="M79.4786 20.0719C79.3964 19.9823 79.3528 19.8638 79.3571 19.7421V6.68954C79.3506 6.56151 79.3942 6.43599 79.4786 6.33974C79.5199 6.29619 79.5702 6.26205 79.6258 6.23963C79.6815 6.21722 79.7413 6.20705 79.8012 6.20982H84.7271C86.0155 6.13308 87.29 6.51142 88.3296 7.27921C88.7714 7.66066 89.119 8.13984 89.345 8.67902C89.571 9.21821 89.6693 9.80268 89.632 10.3864C89.6696 11.2828 89.3993 12.1649 88.8663 12.885C88.3204 13.5611 87.5688 14.0389 86.7265 14.2453L89.8352 19.5822C89.8722 19.6494 89.893 19.7244 89.8959 19.8011C89.8961 19.8538 89.8854 19.906 89.8645 19.9543C89.8436 20.0027 89.8129 20.0461 89.7744 20.0819C89.7378 20.12 89.6938 20.1503 89.6452 20.1709C89.5966 20.1915 89.5444 20.202 89.4916 20.2019H88.6034C88.4341 20.2116 88.2666 20.1622 88.1295 20.0619C87.9999 19.9508 87.8937 19.8149 87.8168 19.6622L84.8485 14.5451H81.2549V19.7421C81.2565 19.8041 81.2447 19.8657 81.2203 19.9226C81.1959 19.9795 81.1595 20.0305 81.1135 20.0719C81.0201 20.1583 80.897 20.2049 80.77 20.2019H79.8012C79.7413 20.2046 79.6815 20.1945 79.6258 20.1721C79.5702 20.1496 79.5199 20.1155 79.4786 20.0719ZM84.6474 12.906C86.6793 12.906 87.6957 12.0598 87.6963 10.3675C87.697 8.67508 86.6803 7.8289 84.6464 7.8289H81.2549V12.906H84.6474Z" fill="#1E1D20"/>
<path d="M96.3955 19.0225C95.8301 18.517 95.381 17.894 95.0796 17.1967C94.7781 16.4995 94.6316 15.7447 94.65 14.9848C94.6361 14.625 94.6291 14.0384 94.6291 13.2248C94.6291 12.3993 94.6361 11.7996 94.65 11.4259C94.6389 10.6691 94.7915 9.91899 95.0973 9.22723C95.4032 8.53547 95.8549 7.91857 96.4214 7.41913C97.7066 6.42201 99.3061 5.92186 100.928 6.00993C102.029 5.99229 103.123 6.1895 104.149 6.5906C105.038 6.9327 105.817 7.51313 106.4 8.26864C106.957 9.02 107.262 9.93025 107.269 10.8672C107.27 10.9237 107.259 10.9798 107.236 11.0316C107.213 11.0833 107.18 11.1295 107.137 11.167C107.052 11.2459 106.94 11.2888 106.824 11.2869H103.957C103.81 11.299 103.664 11.2598 103.543 11.176C103.431 11.0623 103.352 10.9209 103.312 10.7662C103.193 10.2234 102.889 9.73939 102.453 9.398C101.995 9.11715 101.464 8.98099 100.928 9.00722C99.4066 9.00722 98.6193 9.84708 98.5662 11.5268C98.553 11.8859 98.5463 12.4389 98.5463 13.1859C98.5463 13.9328 98.553 14.4991 98.5662 14.8849C98.62 16.5646 99.4073 17.4045 100.928 17.4045C101.465 17.427 101.996 17.2878 102.453 17.0047C102.894 16.6721 103.2 16.1891 103.312 15.6465C103.34 15.4898 103.418 15.3462 103.533 15.2367C103.659 15.1547 103.808 15.1161 103.957 15.1267H106.824C106.94 15.1248 107.052 15.1678 107.137 15.2467C107.18 15.2841 107.213 15.3303 107.236 15.3821C107.259 15.4338 107.27 15.49 107.269 15.5465C107.262 16.4835 106.958 17.3939 106.4 18.145C105.817 18.9011 105.039 19.482 104.149 19.8241C103.123 20.2248 102.029 20.4217 100.928 20.4038C99.302 20.4986 97.6954 20.0098 96.3955 19.0245" fill="#1E1D20"/>
<path d="M110.655 19.0223C110.086 18.515 109.634 17.8889 109.33 17.1879C109.027 16.4868 108.88 15.7277 108.899 14.9636C108.885 14.5912 108.878 14.0185 108.879 13.2456C108.88 12.4727 108.886 11.8927 108.899 11.5056C108.88 10.7395 109.028 9.97846 109.333 9.27595C109.639 8.57344 110.093 7.94644 110.665 7.43892C111.983 6.50825 113.556 6.00879 115.167 6.00879C116.779 6.00879 118.351 6.50825 119.67 7.43892C120.242 7.94662 120.696 8.57365 121.001 9.27612C121.306 9.97859 121.455 10.7395 121.436 11.5056C121.463 12.2792 121.476 12.8592 121.477 13.2456C121.477 13.6454 121.463 14.2181 121.436 14.9636C121.455 15.7268 121.309 16.485 121.008 17.1859C120.706 17.8867 120.256 18.5133 119.69 19.0223C118.353 19.9214 116.781 20.4014 115.172 20.4014C113.564 20.4014 111.992 19.9214 110.655 19.0223ZM116.854 16.7736C117.313 16.2394 117.552 15.5488 117.52 14.8437C117.547 14.0722 117.561 13.5185 117.561 13.1857C117.561 12.8528 117.548 12.3122 117.52 11.5666C117.552 10.8615 117.313 10.171 116.854 9.63667C116.632 9.42281 116.369 9.25666 116.081 9.1484C115.792 9.04013 115.485 8.99203 115.178 9.00703C114.868 8.99139 114.558 9.03914 114.267 9.14738C113.976 9.25562 113.71 9.42208 113.485 9.63667C113.025 10.1705 112.786 10.8614 112.819 11.5666C112.805 11.9397 112.798 12.4794 112.798 13.1857C112.798 13.9052 112.805 14.4589 112.819 14.8437C112.786 15.549 113.025 16.2399 113.485 16.7736C113.71 16.9882 113.976 17.1547 114.267 17.2629C114.558 17.3711 114.868 17.4189 115.178 17.4033C115.485 17.4183 115.792 17.3702 116.081 17.2619C116.369 17.1536 116.632 16.9875 116.854 16.7736Z" fill="#1E1D20"/>
<path d="M123.913 20.0522C123.865 20.0075 123.827 19.9534 123.801 19.8932C123.775 19.833 123.762 19.768 123.762 19.7024V6.72976C123.758 6.59258 123.809 6.45961 123.903 6.35997C123.95 6.31061 124.006 6.27173 124.069 6.24588C124.132 6.22004 124.199 6.20783 124.267 6.21006H129.577C131.243 6.10642 132.891 6.60646 134.221 7.61926C134.786 8.12702 135.234 8.75213 135.533 9.45113C135.833 10.1501 135.977 10.9063 135.957 11.667C135.97 12.0541 135.977 12.5671 135.977 13.2061C135.977 13.8451 135.97 14.3514 135.957 14.7252C135.819 18.3765 133.726 20.2021 129.677 20.2021H124.265C124.199 20.2025 124.133 20.1894 124.073 20.1637C124.012 20.1379 123.957 20.1 123.911 20.0522H123.913ZM129.577 17.2038C130.257 17.261 130.933 17.0454 131.455 16.6042C131.908 16.0715 132.139 15.3844 132.101 14.6852C132.128 14.2995 132.141 13.7997 132.142 13.1861C132.143 12.5724 132.129 12.0794 132.101 11.7069C132.117 11.3612 132.064 11.0158 131.944 10.6913C131.824 10.3668 131.641 10.0698 131.404 9.81801C130.862 9.37645 130.173 9.15847 129.477 9.20836H127.56V17.2038H129.577Z" fill="#1E1D20"/>
<path d="M138.43 20.0518C138.382 20.0071 138.344 19.9529 138.318 19.8927C138.292 19.8325 138.279 19.7676 138.28 19.702V6.72936C138.278 6.66163 138.289 6.59418 138.313 6.53089C138.337 6.46759 138.374 6.40971 138.42 6.36057C138.466 6.31074 138.523 6.27149 138.586 6.24546C138.649 6.21943 138.716 6.20722 138.784 6.20966H148.313C148.382 6.2077 148.451 6.22009 148.515 6.24606C148.579 6.27202 148.637 6.31101 148.686 6.36057C148.736 6.40793 148.775 6.46522 148.801 6.52875C148.827 6.59227 148.84 6.66061 148.838 6.72936V8.70824C148.84 8.77586 148.828 8.84316 148.802 8.90546C148.775 8.96776 148.736 9.02357 148.686 9.06903C148.584 9.16251 148.45 9.21237 148.313 9.20795H141.934V11.7465H147.869C147.939 11.745 148.007 11.7576 148.072 11.7835C148.136 11.8094 148.194 11.8482 148.243 11.8974C148.292 11.9453 148.33 12.0027 148.356 12.0661C148.382 12.1296 148.395 12.1977 148.393 12.2662V14.0852C148.395 14.1539 148.382 14.2222 148.356 14.2858C148.331 14.3494 148.292 14.407 148.243 14.455C148.194 14.504 148.136 14.5427 148.071 14.5686C148.007 14.5945 147.939 14.6072 147.869 14.6059H141.934V17.2034H148.474C148.543 17.2016 148.612 17.214 148.676 17.24C148.74 17.2659 148.799 17.3049 148.847 17.3543C148.897 17.4017 148.936 17.459 148.962 17.5225C148.989 17.586 149.001 17.6544 149 17.7231V19.702C149.002 19.7696 148.989 19.8369 148.963 19.8992C148.937 19.9615 148.897 20.0173 148.847 20.0628C148.746 20.1561 148.612 20.2059 148.474 20.2017H138.784C138.718 20.2023 138.653 20.1892 138.592 20.1635C138.531 20.1377 138.476 20.0997 138.43 20.0518Z" fill="#1E1D20"/>
<path d="M34.1515 20.0623C34.1022 20.0166 34.0632 19.9608 34.0371 19.8988C34.011 19.8367 33.9984 19.7698 34.0002 19.7025V6.72884C33.9988 6.66023 34.0115 6.59208 34.0376 6.52863C34.0636 6.46518 34.1024 6.4078 34.1515 6.36005C34.2003 6.31081 34.2585 6.27211 34.3228 6.24633C34.387 6.22054 34.4558 6.20823 34.5249 6.21013H36.8061C36.9572 6.20184 37.1074 6.23933 37.237 6.31775C37.3666 6.39617 37.4697 6.51189 37.533 6.64988L41.0061 12.8064L44.4982 6.64988C44.5616 6.51181 44.6649 6.39605 44.7947 6.31764C44.9245 6.23922 45.0748 6.20177 45.226 6.21013H47.5033C47.5724 6.20823 47.6412 6.22054 47.7054 6.24633C47.7696 6.27211 47.8279 6.31081 47.8767 6.36005C47.9258 6.4078 47.9646 6.46518 47.9906 6.52863C48.0166 6.59208 48.0294 6.66023 48.028 6.72884V19.7025C48.03 19.7698 48.0176 19.8369 47.9915 19.8989C47.9653 19.961 47.9262 20.0167 47.8767 20.0623C47.775 20.1557 47.6411 20.2059 47.5033 20.2022H44.9423C44.8762 20.2025 44.8108 20.1893 44.75 20.1634C44.6892 20.1374 44.6343 20.0993 44.5888 20.0513C44.5408 20.0068 44.5026 19.9529 44.4766 19.8928C44.4505 19.8328 44.4372 19.768 44.4374 19.7025V12.4256L42.2568 16.3834C42.1943 16.5191 42.0949 16.6343 41.97 16.7156C41.845 16.797 41.6997 16.8412 41.5508 16.8431H40.4555C40.3081 16.8344 40.1655 16.7875 40.0415 16.7069C39.9176 16.6263 39.8167 16.5148 39.7485 16.3834L37.5878 12.4256V19.7025C37.5898 19.7698 37.5773 19.8369 37.5512 19.8989C37.5251 19.961 37.4859 20.0167 37.4364 20.0623C37.3347 20.1557 37.2009 20.2059 37.063 20.2022H34.5249C34.3871 20.2059 34.2532 20.1557 34.1515 20.0623Z" fill="#1E1D20"/>
<path d="M52.2321 23.8799C52.1921 23.8412 52.1607 23.7945 52.1397 23.7429C52.1188 23.6913 52.1089 23.6358 52.1106 23.5801C52.1103 23.4918 52.1241 23.4041 52.1514 23.3202L53.7446 19.5634L49.8682 10.4885C49.8372 10.4183 49.8167 10.3439 49.8075 10.2676C49.8298 10.1431 49.8896 10.0283 49.9787 9.93883C50.0193 9.8969 50.0679 9.86368 50.1217 9.84117C50.1754 9.81867 50.2332 9.80735 50.2914 9.8079H52.6971C52.8272 9.80301 52.9552 9.84155 53.0612 9.91751C53.1671 9.99347 53.245 10.1025 53.2826 10.2277L55.523 15.9044L57.8241 10.2267C57.8707 10.1034 57.9536 9.99718 58.0617 9.92221C58.1698 9.84725 58.2981 9.80703 58.4295 9.8069H60.8123C60.8705 9.80635 60.9283 9.81767 60.982 9.84017C61.0357 9.86268 61.0844 9.8959 61.1249 9.93783C61.1656 9.97418 61.1983 10.0186 61.221 10.0684C61.2436 10.1181 61.2556 10.172 61.2564 10.2267C61.2573 10.3153 61.2435 10.4034 61.2156 10.4875L55.502 23.5801C55.4529 23.7059 55.3665 23.8135 55.2545 23.8886C55.1425 23.9636 55.0103 24.0024 54.8757 23.9998H52.5348C52.4795 24.0009 52.4246 23.9908 52.3733 23.9702C52.322 23.9496 52.2754 23.9189 52.2361 23.8799" fill="#1E1D20"/>
</g>
<defs>
<clipPath id="clip0_0_604">
<rect width="150" height="28.0001" fill="white"/>
</clipPath>
</defs>
</svg>
