<svg width="21" height="21" viewBox="0 0 21 21" fill="none" xmlns="http://www.w3.org/2000/svg">
<path d="M20 10.5C20 15.7467 15.7467 20 10.5 20C5.25329 20 1 15.7467 1 10.5C1 5.25329 5.25329 1 10.5 1C15.7467 1 20 5.25329 20 10.5Z" stroke="#5D82D5" stroke-width="2"/>
<path d="M9.71801 10.202L9.72901 10.102C9.72152 9.9519 9.74421 9.80181 9.79574 9.66062C9.84727 9.51943 9.92659 9.39001 10.029 9.28001C10.2048 9.09144 10.4279 8.95333 10.675 8.88001C10.91 8.81433 11.1298 8.70324 11.322 8.55301C11.4186 8.4813 11.4963 8.38725 11.5485 8.27893C11.6008 8.1706 11.626 8.05122 11.622 7.93101C11.6286 7.81948 11.6123 7.70777 11.5739 7.60284C11.5355 7.4979 11.476 7.40197 11.399 7.32101C11.2126 7.16239 10.971 7.08402 10.727 7.10301C10.4987 7.08734 10.2705 7.13547 10.068 7.24201C9.95271 7.30597 9.86169 7.40613 9.80901 7.52701L9.77301 7.67101C9.71739 7.84588 9.6288 8.00847 9.51201 8.15001C9.46532 8.20306 9.40751 8.24517 9.3427 8.27334C9.27788 8.30151 9.20766 8.31506 9.13701 8.31301C8.93002 8.29977 8.72695 8.25036 8.53701 8.16701C8.05301 7.98168 7.81135 7.75234 7.81201 7.47901C7.81312 7.35253 7.83788 7.22738 7.88501 7.11001C7.93401 6.98501 7.97301 6.88001 8.00501 6.79601C8.07848 6.64193 8.16549 6.49469 8.26501 6.35601C8.55905 5.89811 8.99811 5.552 9.51201 5.37301C9.86237 5.23612 10.2359 5.1682 10.612 5.17301C10.9984 5.15821 11.3837 5.22361 11.7436 5.36508C12.1035 5.50656 12.4301 5.72104 12.703 5.99501C12.9599 6.24197 13.1641 6.53847 13.3032 6.8666C13.4422 7.19472 13.5133 7.54764 13.512 7.90401C13.5152 8.23378 13.4512 8.56075 13.324 8.86501C13.2218 9.12506 13.0677 9.36155 12.871 9.56001C12.5897 9.85012 12.2526 10.0804 11.88 10.237L11.687 10.297C11.6892 10.4024 11.6828 10.5077 11.668 10.612C11.6504 10.6978 11.6131 10.7782 11.559 10.847C11.4836 10.941 11.3773 11.0052 11.259 11.028C11.0743 11.0694 10.8852 11.0878 10.696 11.083C10.5068 11.0883 10.3177 11.0678 10.134 11.022C10.0116 10.9975 9.90376 10.9256 9.83401 10.822C9.78503 10.7422 9.75113 10.6541 9.73401 10.562C9.71928 10.4439 9.71327 10.325 9.71601 10.206L9.71801 10.202ZM9.66901 12.358C9.74356 12.2253 9.86759 12.1275 10.014 12.086C10.268 12.019 10.5306 11.9907 10.793 12.002C11.0698 11.9764 11.3455 12.0612 11.56 12.238C11.7495 12.502 11.8336 12.8272 11.796 13.15C11.8102 13.396 11.7688 13.6421 11.675 13.87C11.6387 13.9451 11.5872 14.0118 11.5236 14.0659C11.4601 14.12 11.386 14.1602 11.306 14.184C11.0553 14.246 10.7971 14.2722 10.539 14.262C10.2499 14.2821 9.96396 14.1917 9.73901 14.009C9.58186 13.8114 9.50795 13.5603 9.53301 13.309V13.115C9.53052 12.9738 9.53653 12.8325 9.55101 12.692C9.56934 12.5751 9.60827 12.4623 9.66601 12.359L9.66901 12.358Z" fill="#5D82D5"/>
</svg>
