<svg width="24" height="24" viewBox="0 0 24 24" fill="none" xmlns="http://www.w3.org/2000/svg">
<path d="M20.9002 17.7729L16.8603 17.3237C16.6853 17.3045 16.5083 17.3248 16.3422 17.3831C16.1761 17.4414 16.0252 17.5362 15.9007 17.6606C15.7617 17.7992 15.6632 17.973 15.6157 18.1634C15.5683 18.3537 15.5736 18.5535 15.6311 18.7411C15.6886 18.9287 15.7962 19.097 15.9423 19.228C16.0884 19.3589 16.2674 19.4476 16.4601 19.4843L17.3132 19.6514C15.7538 20.7468 13.8929 21.331 11.9874 21.3234C10.562 21.3236 9.15571 20.9964 7.8768 20.367C6.59789 19.7377 5.48056 18.8229 4.61096 17.6933C3.74136 16.5637 3.14271 15.2495 2.86118 13.8519C2.57965 12.4543 2.62275 11.0107 2.98716 9.63237C3.03822 9.46075 3.05427 9.28062 3.03435 9.10268C3.01444 8.92473 2.95898 8.75261 2.87125 8.59653C2.78353 8.44044 2.66533 8.30359 2.52369 8.1941C2.38206 8.08461 2.21986 8.00471 2.04674 7.95915C1.87362 7.91359 1.69312 7.9033 1.51595 7.92889C1.33877 7.95449 1.16855 8.01544 1.01539 8.10813C0.862236 8.20081 0.729265 8.32335 0.624381 8.46845C0.519498 8.61355 0.444842 8.77826 0.404849 8.95279C-0.24383 11.386 -0.108433 13.9619 0.791758 16.3137C1.69195 18.6654 3.31103 20.6731 5.41843 22.0508C7.52583 23.4285 10.0141 24.106 12.5289 23.9868C15.0436 23.8676 17.4567 22.9577 19.4243 21.3868L19.6844 22.7191C19.7212 22.9118 19.8098 23.0909 19.9407 23.237C20.0717 23.3831 20.24 23.4907 20.4275 23.5483C20.615 23.6058 20.8147 23.6111 21.005 23.5636C21.1954 23.5161 21.3692 23.4176 21.5077 23.2787C21.6321 23.1541 21.7269 23.0032 21.7852 22.837C21.8435 22.6709 21.8638 22.4938 21.8445 22.3188L21.3954 18.2788C21.3831 18.1505 21.3273 18.0304 21.2372 17.9383C21.1471 17.8463 21.0281 17.7879 20.9002 17.7729Z" fill="#A0A4AD"/>
<path d="M12.022 6.10352e-05C9.31867 0.00917591 6.69744 0.930037 4.58212 2.61375L4.32398 1.28147C4.28722 1.08873 4.1986 0.909666 4.06766 0.763554C3.93673 0.617442 3.76843 0.509814 3.58089 0.452255C3.39336 0.394696 3.19368 0.389384 3.00334 0.436892C2.81301 0.4844 2.63924 0.582929 2.50072 0.721874C2.37632 0.846434 2.28146 0.99735 2.22316 1.16348C2.16487 1.32961 2.14461 1.50672 2.1639 1.68173L2.613 5.72177C2.62705 5.84906 2.68404 5.96776 2.77458 6.05832C2.86511 6.14887 2.98378 6.20587 3.11104 6.21994L7.151 6.66915C7.32596 6.68837 7.503 6.66808 7.66908 6.60977C7.83516 6.55146 7.98604 6.45662 8.11061 6.33224C8.24952 6.19369 8.34802 6.01987 8.39552 5.82949C8.44302 5.63911 8.43771 5.43938 8.38016 5.25179C8.32262 5.0642 8.21502 4.89587 8.06894 4.7649C7.92287 4.63393 7.74385 4.54528 7.55116 4.50851L6.69806 4.3415C8.25749 3.2461 10.1184 2.66186 12.0239 2.66942C13.4493 2.66954 14.8556 2.9971 16.1344 3.62684C17.4133 4.25658 18.5304 5.17167 19.3997 6.30156C20.2691 7.43145 20.8674 8.74595 21.1485 10.1437C21.4296 11.5414 21.3861 12.9851 21.0212 14.3634C20.9314 14.7057 20.9809 15.0698 21.159 15.3757C21.3371 15.6815 21.6292 15.9043 21.9712 15.9951C22.0831 16.0244 22.1982 16.0393 22.3138 16.0393C22.6084 16.039 22.8947 15.9413 23.1281 15.7615C23.3615 15.5816 23.529 15.3297 23.6045 15.0449C24.0724 13.2712 24.127 11.4138 23.7643 9.61569C23.4015 7.81758 22.631 6.12673 21.5121 4.67336C20.3932 3.21999 18.9558 2.04288 17.3104 1.23266C15.6651 0.422451 13.8559 0.000758485 12.022 6.10352e-05Z" fill="#A0A4AD"/>
</svg>
